<?xml version="1.0" encoding="UTF-8"?><svg id="Layer_1" xmlns="http://www.w3.org/2000/svg" viewBox="0 0 708 241.12"><path d="M193.06,228.68L250.7,0h-73.8s13.04,5.08,12.18,11.72l-19,75.38h-72.78L119.25,0H45.45s13.04,5.08,12.18,11.72L0,240.38h73.79s-13-5.07-12.18-11.69l25.92-102.84h72.78l-28.86,114.53h73.79s-13-5.07-12.18-11.69Z"/><path d="M469.38,46.72C462.86-3.8,419.95.14,419.95.14h-133.39s13.04,5.08,12.18,11.72l-57.63,228.66h73.79l43.12-.14c30.42-.54,53.78-10.05,71.16-32.32,17.38-22.27,46.72-110.82,40.2-161.34ZM391.93,177.82c-11.75,15.06-27.55,21.49-48.12,21.86l10.85.09h-49.9l38.97-154.61,2-7.93h39.96s29.02-2.66,33.43,31.5c4.41,34.16-15.43,94.03-27.18,109.09Z"/><path d="M451.01,240.31l.13-.17h-.13s39.89-50.47,39.89-50.47l115.91-147.11-99.9-.13c-6.73-.87-11.88,12.34-11.88,12.34V0l145.72.11.09-.11h67.17l-.13.17h.13s-39.9,50.48-39.9,50.48l-115.9,147.1,99.9.13c6.73.87,11.88-12.34,11.88-12.34v55.59l-212.97-.81Z"/></svg>