<?xml version="1.0" encoding="UTF-8"?><svg id="Layer_1" xmlns="http://www.w3.org/2000/svg" xmlns:xlink="http://www.w3.org/1999/xlink" viewBox="0 0 716.36 246.13"><defs><linearGradient id="linear-gradient" x1="115.82" y1="104.37" x2="309.2" y2="382.5" gradientUnits="userSpaceOnUse"><stop offset="0" stop-color="#1a4b24"/><stop offset="1" stop-color="#16341b"/></linearGradient><linearGradient id="linear-gradient-2" x1="262.99" y1="2.04" x2="456.37" y2="280.17" xlink:href="#linear-gradient"/><linearGradient id="linear-gradient-3" x1="421.98" y1="-108.51" x2="615.36" y2="169.62" xlink:href="#linear-gradient"/></defs><path d="M196.27,231.19L253.91,2.5h-73.8s13.04,5.08,12.18,11.72l-19,75.38h-72.78L122.46,2.5H48.66s13.04,5.08,12.18,11.72L3.21,242.88h73.79s-13-5.07-12.18-11.69l25.92-102.84h72.78l-28.86,114.53h73.79s-13-5.07-12.18-11.69Z" fill="url(#linear-gradient)" stroke="#bcd751" stroke-miterlimit="10" stroke-width="5"/><path d="M472.59,49.22C466.07-1.3,423.16,2.64,423.16,2.64h-133.39s13.04,5.08,12.18,11.72l-57.63,228.66h73.79l43.12-.14c30.42-.54,53.78-10.05,71.16-32.32,17.38-22.27,46.72-110.82,40.2-161.34ZM395.14,180.32c-11.75,15.06-27.55,21.49-48.12,21.86l10.85.09h-49.9l38.97-154.61,2-7.93h39.96s29.02-2.66,33.43,31.5c4.41,34.16-15.43,94.03-27.18,109.09Z" fill="url(#linear-gradient-2)" stroke="#bcd751" stroke-miterlimit="10" stroke-width="5"/><path d="M454.21,242.81l.13-.17h-.13s39.89-50.47,39.89-50.47l115.91-147.11-99.9-.13c-6.73-.87-11.88,12.34-11.88,12.34V2.5l145.72.11.09-.11h67.17l-.13.17h.13s-39.9,50.48-39.9,50.48l-115.9,147.1,99.9.13c6.73.87,11.88-12.34,11.88-12.34v55.59l-212.97-.81Z" fill="url(#linear-gradient-3)" stroke="#bcd751" stroke-miterlimit="10" stroke-width="5"/></svg>